<svg width="510" height="284" viewBox="0 0 510 284" fill="none" xmlns="http://www.w3.org/2000/svg">
<mask id="path-1-inside-1_4068_2870" fill="white">
<path d="M143.119 0.0986328C160.031 0.0986327 175.871 2.66811 190.572 7.83594C205.302 12.9754 218.181 20.0969 229.229 29.1621C231.127 30.7266 232.949 32.3573 234.724 34.0166C228.45 41.3653 222.756 49.2739 217.773 57.8174C210.228 70.7703 204.6 84.5391 200.898 98.9902L200.87 99.0098C196.95 93.1117 192.252 87.9721 186.71 83.5723C181.196 79.144 174.884 75.7965 167.785 73.4639C160.658 71.1313 153.056 69.9648 144.97 69.9648C131.474 69.9649 119.345 73.0369 108.535 79.1436C97.7537 85.2692 89.2212 93.8036 82.9668 104.689C76.7125 115.604 73.5996 128.026 73.5996 141.993C73.5996 155.961 76.7126 168.402 82.9668 179.325C89.2212 190.211 97.8205 198.736 108.716 204.871C119.64 210.997 131.826 214.05 145.331 214.05C153.417 214.05 161.199 212.827 168.688 210.371C176.176 207.925 182.914 204.482 188.931 200.082C193.451 196.757 197.42 192.941 200.886 188.672L201.572 187.793C205.274 201.391 210.674 214.334 217.782 226.538C222.803 235.158 228.536 243.104 234.856 250.481C227.805 256.825 219.965 262.486 211.205 267.351C191.322 278.36 170.007 283.897 143.509 283.897C117.011 283.897 92.7804 277.763 70.8379 265.502C48.867 253.27 31.5842 236.277 18.9521 214.591C6.32004 192.895 1.81412e-07 168.667 0 141.983C5.19542e-05 115.3 6.32014 91.1009 18.9521 69.4053C31.5842 47.7191 48.8004 30.7264 70.6289 18.4941C92.4859 6.23339 116.621 0.0986481 143.119 0.0986328ZM364.18 0C391.366 3.06346e-05 416.048 6.19253 438.246 18.5859C460.07 30.7765 477.28 47.3959 489.852 68.4893L490.447 69.4873C503.04 91.0596 509.354 115.165 509.354 141.886C509.354 168.607 503.04 192.806 490.447 214.492C477.826 236.178 460.473 253.171 438.427 265.403C416.38 277.664 391.403 283.799 364.18 283.799C336.956 283.799 312.339 277.673 290.293 265.403C268.218 253.171 250.894 236.178 238.272 214.492C225.652 192.797 219.336 168.332 219.336 141.886C219.336 115.439 225.652 91.3532 238.272 69.667C250.893 47.981 268.218 30.9601 290.293 18.5762C312.339 6.19224 336.994 7.1364e-06 364.18 0ZM364.18 69.8574C350.933 69.8574 338.881 73.1092 327.957 79.6045C317.071 86.0999 308.48 94.8622 302.231 105.871C295.973 116.909 292.862 128.867 292.862 141.886C292.862 154.905 295.983 166.9 302.231 177.937C308.48 188.946 317.071 197.708 327.957 204.203C338.871 210.699 350.961 213.961 364.18 213.961C377.398 213.961 389.45 210.698 400.374 204.203C411.259 197.708 419.907 188.946 426.279 177.937C432.651 166.891 435.856 154.867 435.856 141.886C435.856 128.904 432.651 116.909 426.279 105.871C419.907 94.8622 411.26 86.0999 400.374 79.6045C389.46 73.1186 377.427 69.8575 364.18 69.8574Z"/>
</mask>
<path d="M143.119 0.0986328C160.031 0.0986327 175.871 2.66811 190.572 7.83594C205.302 12.9754 218.181 20.0969 229.229 29.1621C231.127 30.7266 232.949 32.3573 234.724 34.0166C228.45 41.3653 222.756 49.2739 217.773 57.8174C210.228 70.7703 204.6 84.5391 200.898 98.9902L200.87 99.0098C196.95 93.1117 192.252 87.9721 186.71 83.5723C181.196 79.144 174.884 75.7965 167.785 73.4639C160.658 71.1313 153.056 69.9648 144.97 69.9648C131.474 69.9649 119.345 73.0369 108.535 79.1436C97.7537 85.2692 89.2212 93.8036 82.9668 104.689C76.7125 115.604 73.5996 128.026 73.5996 141.993C73.5996 155.961 76.7126 168.402 82.9668 179.325C89.2212 190.211 97.8205 198.736 108.716 204.871C119.64 210.997 131.826 214.05 145.331 214.05C153.417 214.05 161.199 212.827 168.688 210.371C176.176 207.925 182.914 204.482 188.931 200.082C193.451 196.757 197.42 192.941 200.886 188.672L201.572 187.793C205.274 201.391 210.674 214.334 217.782 226.538C222.803 235.158 228.536 243.104 234.856 250.481C227.805 256.825 219.965 262.486 211.205 267.351C191.322 278.36 170.007 283.897 143.509 283.897C117.011 283.897 92.7804 277.763 70.8379 265.502C48.867 253.27 31.5842 236.277 18.9521 214.591C6.32004 192.895 1.81412e-07 168.667 0 141.983C5.19542e-05 115.3 6.32014 91.1009 18.9521 69.4053C31.5842 47.7191 48.8004 30.7264 70.6289 18.4941C92.4859 6.23339 116.621 0.0986481 143.119 0.0986328ZM364.18 0C391.366 3.06346e-05 416.048 6.19253 438.246 18.5859C460.07 30.7765 477.28 47.3959 489.852 68.4893L490.447 69.4873C503.04 91.0596 509.354 115.165 509.354 141.886C509.354 168.607 503.04 192.806 490.447 214.492C477.826 236.178 460.473 253.171 438.427 265.403C416.38 277.664 391.403 283.799 364.18 283.799C336.956 283.799 312.339 277.673 290.293 265.403C268.218 253.171 250.894 236.178 238.272 214.492C225.652 192.797 219.336 168.332 219.336 141.886C219.336 115.439 225.652 91.3532 238.272 69.667C250.893 47.981 268.218 30.9601 290.293 18.5762C312.339 6.19224 336.994 7.1364e-06 364.18 0ZM364.18 69.8574C350.933 69.8574 338.881 73.1092 327.957 79.6045C317.071 86.0999 308.48 94.8622 302.231 105.871C295.973 116.909 292.862 128.867 292.862 141.886C292.862 154.905 295.983 166.9 302.231 177.937C308.48 188.946 317.071 197.708 327.957 204.203C338.871 210.699 350.961 213.961 364.18 213.961C377.398 213.961 389.45 210.698 400.374 204.203C411.259 197.708 419.907 188.946 426.279 177.937C432.651 166.891 435.856 154.867 435.856 141.886C435.856 128.904 432.651 116.909 426.279 105.871C419.907 94.8622 411.26 86.0999 400.374 79.6045C389.46 73.1186 377.427 69.8575 364.18 69.8574Z" fill="black"/>
<path d="M143.119 0.0986328V-1.43066V-1.43066V0.0986328ZM190.572 7.83594L190.065 9.27868L190.068 9.27985L190.572 7.83594ZM229.229 29.1621L230.201 27.982L230.199 27.9799L229.229 29.1621ZM234.724 34.0166L235.887 35.0095L236.836 33.8978L235.768 32.8995L234.724 34.0166ZM217.773 57.8174L216.452 57.047L216.452 57.0476L217.773 57.8174ZM200.898 98.9902L201.767 100.249L202.238 99.9242L202.38 99.3697L200.898 98.9902ZM200.87 99.0098L199.596 99.8562L200.458 101.152L201.738 100.269L200.87 99.0098ZM186.71 83.5723L185.752 84.7647L185.759 84.77L186.71 83.5723ZM167.785 73.4639L168.263 72.011L168.261 72.0104L167.785 73.4639ZM144.97 69.9648V68.4356V68.4356V69.9648ZM108.535 79.1436L107.783 77.812L107.78 77.8139L108.535 79.1436ZM82.9668 104.689L81.6408 103.928L81.6399 103.929L82.9668 104.689ZM73.5996 141.993H72.0703V141.993H73.5996ZM82.9668 179.325L81.6396 180.085L81.6408 180.087L82.9668 179.325ZM108.716 204.871L107.965 206.204L107.968 206.205L108.716 204.871ZM145.331 214.05V215.579H145.331L145.331 214.05ZM168.688 210.371L168.213 208.917L168.211 208.918L168.688 210.371ZM188.931 200.082L189.833 201.316L189.837 201.314L188.931 200.082ZM200.886 188.672L202.073 189.636L202.082 189.625L202.091 189.613L200.886 188.672ZM201.572 187.793L203.048 187.391L202.246 184.446L200.367 186.852L201.572 187.793ZM217.782 226.538L219.104 225.768H219.104L217.782 226.538ZM234.856 250.481L235.879 251.618L236.989 250.62L236.018 249.486L234.856 250.481ZM211.205 267.351L211.946 268.688L211.948 268.688L211.205 267.351ZM143.509 283.897V285.427V285.427V283.897ZM70.8379 265.502L71.5839 264.167L71.5818 264.166L70.8379 265.502ZM18.9521 214.591L17.6306 215.36L17.6307 215.361L18.9521 214.591ZM0 141.983H-1.52929V141.983H0ZM18.9521 69.4053L17.6307 68.6355L17.6306 68.6358L18.9521 69.4053ZM70.6289 18.4941L71.3765 19.8282L71.3771 19.8279L70.6289 18.4941ZM364.18 0V-1.52929V-1.52929V0ZM438.246 18.5859L438.992 17.2508L438.992 17.2507L438.246 18.5859ZM489.852 68.4893L488.538 69.2722L488.538 69.273L489.852 68.4893ZM490.447 69.4873L491.768 68.7163L491.764 68.7099L491.76 68.7035L490.447 69.4873ZM509.354 141.886H510.884V141.886H509.354ZM490.447 214.492L491.769 215.261L491.77 215.26L490.447 214.492ZM438.427 265.403L437.685 264.066L437.683 264.067L438.427 265.403ZM364.18 283.799V285.328V285.328V283.799ZM290.293 265.403L291.037 264.067L291.034 264.066L290.293 265.403ZM238.272 214.492L236.951 215.261L236.951 215.261L238.272 214.492ZM219.336 141.886H217.807V141.886H219.336ZM238.272 69.667L236.951 68.8978V68.8978L238.272 69.667ZM290.293 18.5762L291.041 19.9099L291.042 19.9095L290.293 18.5762ZM364.18 69.8574V68.3281V68.3281V69.8574ZM327.957 79.6045L327.175 78.29L327.173 78.2912L327.957 79.6045ZM302.231 105.871L300.901 105.116L300.901 105.117L302.231 105.871ZM292.862 141.886H291.333V141.886L292.862 141.886ZM302.231 177.937L300.901 178.691L300.901 178.692L302.231 177.937ZM327.957 204.203L327.173 205.516L327.175 205.517L327.957 204.203ZM364.18 213.961V215.49V215.49V213.961ZM400.374 204.203L401.156 205.518L401.158 205.516L400.374 204.203ZM426.279 177.937L427.603 178.704L427.604 178.702L426.279 177.937ZM435.856 141.886L437.386 141.886V141.886H435.856ZM426.279 105.871L427.604 105.106L427.603 105.105L426.279 105.871ZM400.374 79.6045L401.158 78.2912L401.155 78.2898L400.374 79.6045ZM143.119 0.0986328V1.62792C159.875 1.62792 175.542 4.17323 190.065 9.27868L190.572 7.83594L191.079 6.3932C176.201 1.163 160.188 -1.43066 143.119 -1.43066V0.0986328ZM190.572 7.83594L190.068 9.27985C204.643 14.3651 217.361 21.4022 228.258 30.3443L229.229 29.1621L230.199 27.9799C219.002 18.7917 205.961 11.5857 191.076 6.39202L190.572 7.83594ZM229.229 29.1621L228.256 30.3422C230.123 31.881 231.92 33.4892 233.679 35.1337L234.724 34.0166L235.768 32.8995C233.977 31.2253 232.13 29.5723 230.201 27.982L229.229 29.1621ZM234.724 34.0166L233.561 33.0237C227.232 40.4372 221.484 48.4198 216.452 57.047L217.773 57.8174L219.094 58.5878C224.028 50.128 229.669 42.2934 235.887 35.0095L234.724 34.0166ZM217.773 57.8174L216.452 57.0476C208.835 70.1233 203.153 84.0235 199.417 98.6108L200.898 98.9902L202.38 99.3697C206.046 85.0547 211.621 71.4174 219.095 58.5871L217.773 57.8174ZM200.898 98.9902L200.03 97.7313L200.002 97.7508L200.87 99.0098L201.738 100.269L201.767 100.249L200.898 98.9902ZM200.87 99.0098L202.144 98.1633C198.137 92.1343 193.331 86.8755 187.661 82.3745L186.71 83.5723L185.759 84.77C191.174 89.0686 195.764 94.0891 199.596 99.8562L200.87 99.0098ZM186.71 83.5723L187.668 82.3799C181.999 77.8275 175.522 74.3962 168.263 72.011L167.785 73.4639L167.308 74.9167C174.247 77.1969 180.393 80.4605 185.752 84.7646L186.71 83.5723ZM167.785 73.4639L168.261 72.0104C160.968 69.6238 153.205 68.4356 144.97 68.4356V69.9648V71.4941C152.907 71.4941 160.347 72.6387 167.309 74.9173L167.785 73.4639ZM144.97 69.9648V68.4356C131.232 68.4356 118.84 71.5656 107.783 77.812L108.535 79.1436L109.287 80.4751C119.85 74.5083 131.716 71.4942 144.97 71.4941V69.9648ZM108.535 79.1436L107.78 77.8139C96.7569 84.0766 88.029 92.8088 81.6408 103.928L82.9668 104.689L84.2928 105.451C90.4133 94.7984 98.7505 86.4617 109.291 80.4732L108.535 79.1436ZM82.9668 104.689L81.6399 103.929C75.2384 115.1 72.0703 127.79 72.0703 141.993H73.5996H75.1289C75.1289 128.262 78.1866 116.107 84.2937 105.45L82.9668 104.689ZM73.5996 141.993H72.0703C72.0703 156.196 75.2384 168.905 81.6396 180.085L82.9668 179.325L84.294 178.565C78.1868 167.899 75.1289 155.725 75.1289 141.993H73.5996ZM82.9668 179.325L81.6408 180.087C88.0319 191.211 96.8299 199.933 107.965 206.204L108.716 204.871L109.466 203.539C98.8111 197.539 90.4104 189.211 84.2928 178.563L82.9668 179.325ZM108.716 204.871L107.968 206.205C119.138 212.469 131.585 215.579 145.331 215.579V214.05V212.521C132.066 212.521 120.141 209.525 109.464 203.537L108.716 204.871ZM145.331 214.05L145.331 215.579C153.574 215.579 161.518 214.332 169.164 211.824L168.688 210.371L168.211 208.918C160.881 211.322 153.26 212.52 145.331 212.521L145.331 214.05ZM168.688 210.371L169.162 211.825C176.798 209.33 183.682 205.815 189.833 201.316L188.931 200.082L188.028 198.848C182.146 203.149 175.553 206.519 168.213 208.917L168.688 210.371ZM188.931 200.082L189.837 201.314C194.464 197.91 198.527 194.003 202.073 189.636L200.886 188.672L199.698 187.708C196.313 191.879 192.437 195.604 188.025 198.85L188.931 200.082ZM200.886 188.672L202.091 189.613L202.777 188.734L201.572 187.793L200.367 186.852L199.681 187.73L200.886 188.672ZM201.572 187.793L200.097 188.195C203.833 201.92 209.285 214.988 216.461 227.308L217.782 226.538L219.104 225.768C212.063 213.681 206.714 200.861 203.048 187.391L201.572 187.793ZM217.782 226.538L216.461 227.308C221.531 236.012 227.318 244.034 233.695 251.476L234.856 250.481L236.018 249.486C229.753 242.175 224.075 234.303 219.104 225.768L217.782 226.538ZM234.856 250.481L233.834 249.345C226.866 255.613 219.12 261.206 210.463 266.014L211.205 267.351L211.948 268.688C220.81 263.766 228.744 258.037 235.879 251.618L234.856 250.481ZM211.205 267.351L210.464 266.013C190.826 276.886 169.768 282.368 143.509 282.368V283.897V285.427C170.245 285.427 191.819 279.833 211.946 268.688L211.205 267.351ZM143.509 283.897V282.368C117.257 282.368 93.2859 276.293 71.5839 264.167L70.8379 265.502L70.0919 266.837C92.2748 279.232 116.764 285.427 143.509 285.427V283.897ZM70.8379 265.502L71.5818 264.166C49.8517 252.068 32.768 235.271 20.2736 213.821L18.9521 214.591L17.6307 215.361C30.4005 237.283 47.8823 254.472 70.094 266.838L70.8379 265.502ZM18.9521 214.591L20.2737 213.821C7.78639 192.374 1.52929 168.414 1.52929 141.983H0H-1.52929C-1.52929 168.919 4.85368 193.416 17.6306 215.36L18.9521 214.591ZM0 141.983H1.52929C1.52934 115.553 7.78634 91.622 20.2737 70.1748L18.9521 69.4053L17.6306 68.6358C4.85394 90.5798 -1.52924 115.047 -1.52929 141.983H0ZM18.9521 69.4053L20.2736 70.175C32.7694 48.7228 49.7883 31.9259 71.3765 19.8282L70.6289 18.4941L69.8813 17.16C47.8126 29.527 30.399 46.7154 17.6307 68.6355L18.9521 69.4053ZM70.6289 18.4941L71.3771 19.8279C92.9929 7.70246 116.868 1.62794 143.119 1.62792V0.0986328V-1.43066C116.374 -1.43064 91.979 4.76432 69.8807 17.1604L70.6289 18.4941ZM364.18 0V1.52929C391.123 1.52932 415.546 7.66387 437.501 19.9212L438.246 18.5859L438.992 17.2507C416.55 4.7212 391.608 -1.52926 364.18 -1.52929V0ZM438.246 18.5859L437.5 19.921C459.095 31.9836 476.107 48.4148 488.538 69.2722L489.852 68.4893L491.165 67.7063C478.453 46.3769 461.044 29.5693 438.992 17.2508L438.246 18.5859ZM489.852 68.4893L488.538 69.273L489.134 70.2711L490.447 69.4873L491.76 68.7035L491.165 67.7055L489.852 68.4893ZM490.447 69.4873L489.127 70.2583C501.573 91.5813 507.825 115.417 507.825 141.886H509.354H510.884C510.884 114.912 504.506 90.538 491.768 68.7163L490.447 69.4873ZM509.354 141.886H507.825C507.825 168.355 501.573 192.286 489.125 213.724L490.447 214.492L491.77 215.26C504.506 193.326 510.884 168.859 510.884 141.886H509.354ZM490.447 214.492L489.126 213.723C476.644 235.17 459.491 251.967 437.685 264.066L438.427 265.403L439.169 266.741C461.455 254.375 479.009 237.186 491.769 215.261L490.447 214.492ZM438.427 265.403L437.683 264.067C415.885 276.19 391.168 282.27 364.18 282.27V283.799V285.328C391.639 285.328 416.876 279.138 439.17 266.74L438.427 265.403ZM364.18 283.799V282.27C337.195 282.27 312.838 276.201 291.037 264.067L290.293 265.403L289.549 266.74C311.841 279.146 336.717 285.328 364.18 285.328V283.799ZM290.293 265.403L291.034 264.066C269.201 251.967 252.077 235.171 239.594 213.723L238.272 214.492L236.951 215.261C249.71 237.186 267.236 254.375 289.552 266.741L290.293 265.403ZM238.272 214.492L239.594 213.723C227.119 192.277 220.865 168.081 220.865 141.886H219.336H217.807C217.807 168.583 224.184 193.316 236.951 215.261L238.272 214.492ZM219.336 141.886H220.865C220.865 115.695 227.117 91.876 239.594 70.4362L238.272 69.667L236.951 68.8978C224.186 90.8303 217.807 115.184 217.807 141.886H219.336ZM238.272 69.667L239.594 70.4362C252.077 48.9881 269.203 32.1614 291.041 19.9099L290.293 18.5762L289.545 17.2424C267.234 29.7589 249.71 46.9738 236.951 68.8978L238.272 69.667ZM290.293 18.5762L291.042 19.9095C312.842 7.66382 337.235 1.5293 364.18 1.52929V0V-1.52929C336.752 -1.52928 311.837 4.72066 289.544 17.2428L290.293 18.5762ZM364.18 69.8574V68.3281C350.669 68.3281 338.345 71.6486 327.175 78.29L327.957 79.6045L328.739 80.919C339.416 74.5698 351.197 71.3867 364.18 71.3867V69.8574ZM327.957 79.6045L327.173 78.2912C316.061 84.9217 307.282 93.8759 300.901 105.116L302.231 105.871L303.561 106.626C309.679 95.8484 318.081 87.2781 328.741 80.9178L327.957 79.6045ZM302.231 105.871L300.901 105.117C294.509 116.39 291.333 128.609 291.333 141.886H292.862H294.392C294.392 129.124 297.437 117.427 303.562 106.625L302.231 105.871ZM292.862 141.886L291.333 141.886C291.333 155.162 294.518 167.418 300.901 178.691L302.231 177.937L303.562 177.184C297.447 166.383 294.392 154.648 294.392 141.886L292.862 141.886ZM302.231 177.937L300.901 178.692C307.282 189.933 316.062 198.886 327.173 205.516L327.957 204.203L328.741 202.89C318.081 196.53 309.679 187.96 303.561 177.183L302.231 177.937ZM327.957 204.203L327.175 205.517C338.335 212.159 350.697 215.49 364.18 215.49V213.961V212.432C351.226 212.432 339.407 209.238 328.739 202.889L327.957 204.203ZM364.18 213.961V215.49C377.663 215.49 389.987 212.159 401.156 205.518L400.374 204.203L399.592 202.889C388.914 209.238 377.133 212.432 364.18 212.432V213.961ZM400.374 204.203L401.158 205.516C412.267 198.887 421.101 189.937 427.603 178.704L426.279 177.937L424.956 177.171C418.714 187.955 410.252 196.528 399.59 202.89L400.374 204.203ZM426.279 177.937L427.604 178.702C434.112 167.419 437.386 155.131 437.386 141.886L435.856 141.886L434.327 141.886C434.327 154.602 431.191 166.362 424.955 177.173L426.279 177.937ZM435.856 141.886H437.386C437.386 128.639 434.112 116.379 427.604 105.106L426.279 105.871L424.955 106.636C431.191 117.438 434.327 129.17 434.327 141.886H435.856ZM426.279 105.871L427.603 105.105C421.1 93.871 412.267 84.9203 401.158 78.2912L400.374 79.6045L399.59 80.9178C410.252 87.2795 418.714 95.8533 424.956 106.637L426.279 105.871ZM400.374 79.6045L401.155 78.2898C389.996 71.6584 377.692 68.3282 364.18 68.3281V69.8574V71.3867C377.161 71.3867 388.923 74.5787 399.593 80.9192L400.374 79.6045Z" fill="#8646F6" mask="url(#path-1-inside-1_4068_2870)"/>
</svg>
